<svg id="visual" viewBox="0 0 900 600" width="900" height="600" xmlns="http://www.w3.org/2000/svg" xmlns:xlink="http://www.w3.org/1999/xlink" version="1.1"><rect x="0" y="0" width="900" height="600" fill="#191524"></rect><path d="M0 311L13.7 336.5C27.3 362 54.7 413 82 414.7C109.3 416.3 136.7 368.7 163.8 363.7C191 358.7 218 396.3 245.2 403.7C272.3 411 299.7 388 327 371.8C354.3 355.7 381.7 346.3 409 357.8C436.3 369.3 463.7 401.7 491 412.8C518.3 424 545.7 414 573 391.8C600.3 369.7 627.7 335.3 654.8 319.3C682 303.3 709 305.7 736.2 305.8C763.3 306 790.7 304 818 323.8C845.3 343.7 872.7 385.3 886.3 406.2L900 427L900 601L886.3 601C872.7 601 845.3 601 818 601C790.7 601 763.3 601 736.2 601C709 601 682 601 654.8 601C627.7 601 600.3 601 573 601C545.7 601 518.3 601 491 601C463.7 601 436.3 601 409 601C381.7 601 354.3 601 327 601C299.7 601 272.3 601 245.2 601C218 601 191 601 163.8 601C136.7 601 109.3 601 82 601C54.7 601 27.3 601 13.7 601L0 601Z" fill="#3f3d56"></path><path d="M0 409L13.7 406C27.3 403 54.7 397 82 393.3C109.3 389.7 136.7 388.3 163.8 384.3C191 380.3 218 373.7 245.2 379.7C272.3 385.7 299.7 404.3 327 423.3C354.3 442.3 381.7 461.7 409 451.3C436.3 441 463.7 401 491 380.7C518.3 360.3 545.7 359.7 573 374.5C600.3 389.3 627.7 419.7 654.8 434.7C682 449.7 709 449.3 736.2 432C763.3 414.7 790.7 380.3 818 382.2C845.3 384 872.7 422 886.3 441L900 460L900 601L886.3 601C872.7 601 845.3 601 818 601C790.7 601 763.3 601 736.2 601C709 601 682 601 654.8 601C627.7 601 600.3 601 573 601C545.7 601 518.3 601 491 601C463.7 601 436.3 601 409 601C381.7 601 354.3 601 327 601C299.7 601 272.3 601 245.2 601C218 601 191 601 163.8 601C136.7 601 109.3 601 82 601C54.7 601 27.3 601 13.7 601L0 601Z" fill="#37344b"></path><path d="M0 498L13.7 494.3C27.3 490.7 54.7 483.3 82 471C109.3 458.7 136.7 441.3 163.8 435.3C191 429.3 218 434.7 245.2 439.5C272.3 444.3 299.7 448.7 327 443.5C354.3 438.3 381.7 423.7 409 421.8C436.3 420 463.7 431 491 445.7C518.3 460.3 545.7 478.7 573 473.5C600.3 468.3 627.7 439.7 654.8 422.5C682 405.3 709 399.7 736.2 407C763.3 414.3 790.7 434.7 818 442.7C845.3 450.7 872.7 446.3 886.3 444.2L900 442L900 601L886.3 601C872.7 601 845.3 601 818 601C790.7 601 763.3 601 736.2 601C709 601 682 601 654.8 601C627.7 601 600.3 601 573 601C545.7 601 518.3 601 491 601C463.7 601 436.3 601 409 601C381.7 601 354.3 601 327 601C299.7 601 272.3 601 245.2 601C218 601 191 601 163.8 601C136.7 601 109.3 601 82 601C54.7 601 27.3 601 13.7 601L0 601Z" fill="#302c41"></path><path d="M0 464L13.7 469.2C27.3 474.3 54.7 484.7 82 481C109.3 477.3 136.7 459.7 163.8 455.7C191 451.7 218 461.3 245.2 460.5C272.3 459.7 299.7 448.3 327 456.7C354.3 465 381.7 493 409 505C436.3 517 463.7 513 491 506.3C518.3 499.7 545.7 490.3 573 477.5C600.3 464.7 627.7 448.3 654.8 455.5C682 462.7 709 493.3 736.2 508.5C763.3 523.7 790.7 523.3 818 508.8C845.3 494.3 872.7 465.7 886.3 451.3L900 437L900 601L886.3 601C872.7 601 845.3 601 818 601C790.7 601 763.3 601 736.2 601C709 601 682 601 654.8 601C627.7 601 600.3 601 573 601C545.7 601 518.3 601 491 601C463.7 601 436.3 601 409 601C381.7 601 354.3 601 327 601C299.7 601 272.3 601 245.2 601C218 601 191 601 163.8 601C136.7 601 109.3 601 82 601C54.7 601 27.3 601 13.7 601L0 601Z" fill="#282437"></path><path d="M0 477L13.7 480.3C27.3 483.7 54.7 490.3 82 496C109.3 501.7 136.7 506.3 163.8 508.8C191 511.3 218 511.7 245.2 506.5C272.3 501.3 299.7 490.7 327 497.3C354.3 504 381.7 528 409 536.3C436.3 544.7 463.7 537.3 491 524.2C518.3 511 545.7 492 573 485.3C600.3 478.7 627.7 484.3 654.8 488C682 491.7 709 493.3 736.2 495.2C763.3 497 790.7 499 818 507C845.3 515 872.7 529 886.3 536L900 543L900 601L886.3 601C872.7 601 845.3 601 818 601C790.7 601 763.3 601 736.2 601C709 601 682 601 654.8 601C627.7 601 600.3 601 573 601C545.7 601 518.3 601 491 601C463.7 601 436.3 601 409 601C381.7 601 354.3 601 327 601C299.7 601 272.3 601 245.2 601C218 601 191 601 163.8 601C136.7 601 109.3 601 82 601C54.7 601 27.3 601 13.7 601L0 601Z" fill="#201c2d"></path><path d="M0 559L13.7 560C27.3 561 54.7 563 82 562.3C109.3 561.7 136.7 558.3 163.8 552.7C191 547 218 539 245.2 536.5C272.3 534 299.7 537 327 539C354.3 541 381.7 542 409 543C436.3 544 463.7 545 491 550C518.3 555 545.7 564 573 567C600.3 570 627.7 567 654.8 561C682 555 709 546 736.2 547C763.3 548 790.7 559 818 558C845.3 557 872.7 544 886.3 537.5L900 531L900 601L886.3 601C872.7 601 845.3 601 818 601C790.7 601 763.3 601 736.2 601C709 601 682 601 654.8 601C627.7 601 600.3 601 573 601C545.7 601 518.3 601 491 601C463.7 601 436.3 601 409 601C381.7 601 354.3 601 327 601C299.7 601 272.3 601 245.2 601C218 601 191 601 163.8 601C136.7 601 109.3 601 82 601C54.7 601 27.3 601 13.7 601L0 601Z" fill="#191524"></path></svg>