<svg id="visual" viewBox="0 0 900 600" width="900" height="600" xmlns="http://www.w3.org/2000/svg" xmlns:xlink="http://www.w3.org/1999/xlink" version="1.1"><g transform="translate(444.83710914691983 289.36075070909095)"><path d="M105.7 -142.8C137.8 -122 165.4 -92.4 194.6 -51.7C223.8 -10.9 254.6 40.9 249.2 88.3C243.9 135.7 202.5 178.7 154.9 202.2C107.4 225.8 53.7 229.9 1.6 227.7C-50.5 225.6 -101.1 217.2 -144.8 192.4C-188.6 167.6 -225.5 126.4 -236.1 80C-246.6 33.6 -230.8 -18.1 -215.2 -71C-199.5 -124 -184.1 -178.1 -148.3 -197.6C-112.5 -217.1 -56.2 -202.1 -9.7 -188.6C36.7 -175.2 73.5 -163.5 105.7 -142.8" fill="#000000"></path></g></svg>